<svg width="511" height="154" viewBox="0 0 511 154" fill="none" xmlns="http://www.w3.org/2000/svg">
<path d="M41.5283 152.971V28.0093H0V0.629036H113.538V28.0093H71.805V152.971H41.5283Z" fill="#FE5F55"/>
<path d="M165.317 154C153.179 154 143.428 152.284 136.063 148.853C128.699 145.285 123.312 139.383 119.902 131.149C116.629 122.914 114.992 111.66 114.992 97.3865C114.992 82.2896 116.697 70.6925 120.107 62.595C123.516 54.3603 128.903 48.6647 136.268 45.5081C143.632 42.3514 153.316 40.7731 165.317 40.7731C177.455 40.7731 187.206 42.42 194.571 45.7139C202.072 49.0078 207.459 54.7721 210.732 63.0068C214.142 71.2414 215.847 82.7014 215.847 97.3865C215.847 112.072 214.21 123.532 210.937 131.766C207.664 140.001 202.345 145.765 194.98 149.059C187.616 152.353 177.728 154 165.317 154ZM165.317 129.708C170.091 129.708 173.977 129.021 176.978 127.649C179.978 126.277 182.16 123.326 183.524 118.797C184.888 114.13 185.57 106.994 185.57 97.3865C185.57 87.6422 184.888 80.5054 183.524 75.9764C182.16 71.4473 179.978 68.4965 176.978 67.1241C173.977 65.7516 170.091 65.0654 165.317 65.0654C160.544 65.0654 156.657 65.7516 153.657 67.1241C150.792 68.4965 148.679 71.4473 147.315 75.9764C145.951 80.5054 145.269 87.6422 145.269 97.3865C145.269 106.994 145.951 114.13 147.315 118.797C148.679 123.326 150.792 126.277 153.657 127.649C156.657 129.021 160.544 129.708 165.317 129.708Z" fill="#FE5F55"/>
<path d="M237.367 152.971V0.629036H301.398C315.036 0.629036 325.674 3.85429 333.311 10.3048C341.085 16.7553 346.472 25.6762 349.473 37.0675C352.609 48.4588 354.178 61.7029 354.178 76.7999C354.178 102.465 349.814 121.61 341.085 134.237C332.357 146.726 319.128 152.971 301.398 152.971H237.367ZM267.643 125.59H298.329C307.74 125.59 314.354 121.473 318.173 113.238C321.992 105.004 323.901 92.8575 323.901 76.7999C323.901 63.6244 322.946 53.5369 321.037 46.5374C319.128 39.4007 316.264 34.5285 312.445 31.9208C308.763 29.3132 304.057 28.0093 298.329 28.0093H267.643V125.59Z" fill="#FE5F55"/>
<path d="M420.034 154C407.896 154 398.145 152.284 390.78 148.853C383.416 145.285 378.029 139.383 374.619 131.149C371.346 122.914 369.709 111.66 369.709 97.3865C369.709 82.2896 371.414 70.6925 374.824 62.595C378.233 54.3603 383.62 48.6647 390.985 45.5081C398.349 42.3514 408.033 40.7731 420.034 40.7731C432.172 40.7731 441.923 42.42 449.288 45.7139C456.789 49.0078 462.176 54.7721 465.449 63.0068C468.859 71.2414 470.564 82.7014 470.564 97.3865C470.564 112.072 468.927 123.532 465.654 131.766C462.381 140.001 457.062 145.765 449.697 149.059C442.333 152.353 432.445 154 420.034 154ZM420.034 129.708C424.808 129.708 428.694 129.021 431.695 127.649C434.695 126.277 436.877 123.326 438.241 118.797C439.605 114.13 440.287 106.994 440.287 97.3865C440.287 87.6422 439.605 80.5054 438.241 75.9764C436.877 71.4473 434.695 68.4965 431.695 67.1241C428.694 65.7516 424.808 65.0654 420.034 65.0654C415.261 65.0654 411.374 65.7516 408.374 67.1241C405.51 68.4965 403.396 71.4473 402.032 75.9764C400.668 80.5054 399.986 87.6422 399.986 97.3865C399.986 106.994 400.668 114.13 402.032 118.797C403.396 123.326 405.51 126.277 408.374 127.649C411.374 129.021 415.261 129.708 420.034 129.708Z" fill="#FE5F55"/>
<path d="M505.791 0H469.328C466.463 0 464.145 2.3394 464.145 5.19866L464.119 38.808C464.119 40.6016 465.03 42.1871 466.411 43.1229L487.559 57.1853L508.682 43.1229C510.062 42.1871 510.974 40.6016 510.974 38.808L511 5.19866C511 2.3394 508.656 0 505.791 0ZM482.35 38.99L469.328 25.9933L473 22.3283L482.35 31.6339L502.119 11.9049L505.791 15.596L482.35 38.99Z" fill="#FE5F55"/>
</svg>
